<svg width="311" height="196" viewBox="0 0 311 196" fill="none" xmlns="http://www.w3.org/2000/svg">
<rect x="35" y="48" width="30" height="100" fill="#C20000"/>
<rect y="113" width="30" height="100" transform="rotate(-90 0 113)" fill="#C20000"/>
<path d="M151.961 96.2734H192.742V149.57C186.133 151.727 179.898 153.227 174.039 154.07C168.227 154.961 162.273 155.406 156.18 155.406C140.664 155.406 128.805 150.859 120.602 141.766C112.445 132.625 108.367 119.523 108.367 102.461C108.367 85.8672 113.102 72.9297 122.57 63.6484C132.086 54.3672 145.258 49.7266 162.086 49.7266C172.633 49.7266 182.805 51.8359 192.602 56.0547L185.359 73.4922C177.859 69.7422 170.055 67.8672 161.945 67.8672C152.523 67.8672 144.977 71.0312 139.305 77.3594C133.633 83.6875 130.797 92.1953 130.797 102.883C130.797 114.039 133.07 122.57 137.617 128.477C142.211 134.336 148.867 137.266 157.586 137.266C162.133 137.266 166.75 136.797 171.438 135.859V114.414H151.961V96.2734ZM302.57 101.617C302.57 118.539 297.742 131.5 288.086 140.5C278.477 149.5 264.578 154 246.391 154H217.281V51.2031H249.555C266.336 51.2031 279.367 55.6328 288.648 64.4922C297.93 73.3516 302.57 85.7266 302.57 101.617ZM279.93 102.18C279.93 80.1016 270.18 69.0625 250.68 69.0625H239.078V136H248.43C269.43 136 279.93 124.727 279.93 102.18Z" fill="black"/>
</svg>
